0
SECTION
2
HEADER
9
$INSUNITS
70
4
9
$ACADVER
1
AC1014
9
$HANDSEED
5
FFFF
0
ENDSEC
0
SECTION
2
TABLES
0
TABLE
2
VPORT
5
8
100
AcDbSymbolTable
0
ENDTAB
0
TABLE
2
LTYPE
5
5
100
AcDbSymbolTable
0
LTYPE
5
14
100
AcDbSymbolTableRecord
100
AcDbLinetypeTableRecord
2
BYBLOCK
70
0
0
LTYPE
5
15
100
AcDbSymbolTableRecord
100
AcDbLinetypeTableRecord
2
BYLAYER
70
0
0
ENDTAB
0
TABLE
2
LAYER
5
2
100
AcDbSymbolTable
70
2
0
LAYER
5
50
100
AcDbSymbolTableRecord
100
AcDbLayerTableRecord
2
0
70
0
6
CONTINUOUS
0
ENDTAB
0
TABLE
2
STYLE
5
3
100
AcDbSymbolTable
70
1
0
STYLE
5
11
100
AcDbSymbolTableRecord
100
AcDbTextStyleTableRecord
2
STANDARD
70
0
0
ENDTAB
0
TABLE
2
VIEW
5
6
100
AcDbSymbolTable
70
0
0
ENDTAB
0
TABLE
2
UCS
5
7
100
AcDbSymbolTable
70
0
0
ENDTAB
0
TABLE
2
APPID
5
9
100
AcDbSymbolTable
70
2
0
APPID
5
12
100
AcDbSymbolTableRecord
100
AcDbRegAppTableRecord
2
ACAD
70
0
0
ENDTAB
0
TABLE
2
DIMSTYLE
5
A
100
AcDbSymbolTable
70
1
0
ENDTAB
0
TABLE
2
BLOCK_RECORD
5
1
100
AcDbSymbolTable
70
1
0
BLOCK_RECORD
5
1F
100
AcDbSymbolTableRecord
100
AcDbBlockTableRecord
2
*MODEL_SPACE
0
BLOCK_RECORD
5
1B
100
AcDbSymbolTableRecord
100
AcDbBlockTableRecord
2
*PAPER_SPACE
0
ENDTAB
0
ENDSEC
0
SECTION
2
BLOCKS
0
BLOCK
5
20
100
AcDbEntity
100
AcDbBlockBegin
2
*MODEL_SPACE
0
ENDBLK
5
21
100
AcDbEntity
100
AcDbBlockEnd
0
BLOCK
5
1C
100
AcDbEntity
100
AcDbBlockBegin
2
*PAPER_SPACE
0
ENDBLK
5
1D
100
AcDbEntity
100
AcDbBlockEnd
0
ENDSEC
0
SECTION
2
ENTITIES
0
LWPOLYLINE
5
100
100
AcDbEntity
8
0
100
AcDbPolyline
90
8
70
1
43
0.0
10
-141.39999787658451
20
-47.500000707805157
10
141.40000212341548
20
-47.500000707805157
42
0.41421356237310025
10
143.40000212341548
20
-45.500000707805157
10
143.40000212341548
20
45.499999292194822
42
0.41421356237310025
10
141.40000212341548
20
47.499999292194815
10
-141.39999787658451
20
47.499999292194829
42
0.41421356237310542
10
-143.39999787658454
20
45.499999292194822
10
-143.39999787658454
20
-45.500000707805192
42
0.41421356237311452
0
LINE
5
101
100
AcDbEntity
8
0
100
AcDbLine
10
127.00000189244747
20
47.49999929219485
30
0
11
141.40000212341548
21
47.49999929219485
31
0
0
LINE
5
102
100
AcDbEntity
8
0
100
AcDbLine
10
141.40000212341548
20
-28.500000707805153
30
0
11
143.40000212341548
21
-28.500000707805153
31
0
0
LINE
5
103
100
AcDbEntity
8
0
100
AcDbLine
10
141.40000212341548
20
-9.5000007078051514
30
0
11
143.40000212341548
21
-9.5000007078051514
31
0
0
LINE
5
104
100
AcDbEntity
8
0
100
AcDbLine
10
141.40000212341548
20
9.4999992921948504
30
0
11
143.40000212341548
21
9.4999992921948504
31
0
0
LINE
5
105
100
AcDbEntity
8
0
100
AcDbLine
10
141.40000212341548
20
28.49999929219485
30
0
11
143.40000212341548
21
28.49999929219485
31
0
0
LINE
5
106
100
AcDbEntity
8
0
100
AcDbLine
10
142.50000212341919
20
-45.500000707805157
30
0
11
142.50000212341919
21
-47.500000707805157
31
0
0
LINE
5
107
100
AcDbEntity
8
0
100
AcDbLine
10
142.50000212341919
20
-45.500000707805157
30
0
11
142.50000212341919
21
47.499999292194836
31
0
0
LINE
5
108
100
AcDbEntity
8
0
100
AcDbLine
10
142.50000212341919
20
-28.500000707805153
30
0
11
-142.49999787658078
21
-28.500000707805153
31
0
0
LINE
5
109
100
AcDbEntity
8
0
100
AcDbLine
10
142.50000212341919
20
-9.5000007078051496
30
0
11
-142.49999787658081
21
-9.5000007078051496
31
0
0
LINE
5
110
100
AcDbEntity
8
0
100
AcDbLine
10
142.50000212341919
20
9.499999292194854
30
0
11
-142.49999787658081
21
9.499999292194854
31
0
0
LINE
5
111
100
AcDbEntity
8
0
100
AcDbLine
10
142.50000212341919
20
28.499999292194858
30
0
11
-142.49999787658081
21
28.499999292194858
31
0
0
LINE
5
112
100
AcDbEntity
8
0
100
AcDbLine
10
142.50000212341919
20
-47.500000707805157
30
0
11
123.50000212341918
21
-47.500000707805157
31
0
0
LINE
5
113
100
AcDbEntity
8
0
100
AcDbLine
10
142.50000212341919
20
-47.500000707805157
30
0
11
140.01000212341918
21
-47.500000707805157
31
0
0
LINE
5
114
100
AcDbEntity
8
0
100
AcDbLine
10
142.50000212341919
20
-47.500000707805157
30
0
11
142.50000212341919
21
-45.250000707805157
31
0
0
LWPOLYLINE
5
115
100
AcDbEntity
8
0
100
AcDbPolyline
90
4
70
1
43
0.0
10
125.99000212341917
20
-30.750000707805157
10
140.01000212341918
20
-30.750000707805157
10
140.01000212341918
20
-45.250000707805157
10
125.99000212341917
20
-45.250000707805157
0
LINE
5
116
100
AcDbEntity
8
0
100
AcDbLine
10
123.50000212341918
20
-47.500000707805157
30
0
11
123.50000212341918
21
-28.500000707805153
31
0
0
LWPOLYLINE
5
117
100
AcDbEntity
8
0
100
AcDbPolyline
90
4
70
1
43
0.0
10
121.01000212341918
20
-45.250000707805157
10
106.99000212341917
20
-45.250000707805157
10
106.99000212341917
20
-30.750000707805157
10
121.01000212341918
20
-30.750000707805157
0
LWPOLYLINE
5
118
100
AcDbEntity
8
0
100
AcDbPolyline
90
4
70
1
43
0.0
10
121.01000212341918
20
-45.250000707805157
10
106.99000212341917
20
-45.250000707805157
10
106.99000212341917
20
-30.750000707805157
10
121.01000212341918
20
-30.750000707805157
0
LINE
5
119
100
AcDbEntity
8
0
100
AcDbLine
10
87.990002123419202
20
-45.250000707805157
30
0
11
102.01000212341921
21
-45.250000707805157
31
0
0
LINE
5
120
100
AcDbEntity
8
0
100
AcDbLine
10
87.990002123419202
20
-30.750000707805157
30
0
11
87.990002123419202
21
-45.250000707805157
31
0
0
LINE
5
121
100
AcDbEntity
8
0
100
AcDbLine
10
102.01000212341921
20
-45.250000707805157
30
0
11
102.01000212341921
21
-30.750000707805157
31
0
0
LINE
5
122
100
AcDbEntity
8
0
100
AcDbLine
10
102.01000212341921
20
-30.750000707805157
30
0
11
87.990002123419202
21
-30.750000707805157
31
0
0
LINE
5
123
100
AcDbEntity
8
0
100
AcDbLine
10
68.990002123419174
20
-45.250000707805157
30
0
11
83.010002123419184
21
-45.250000707805157
31
0
0
LINE
5
124
100
AcDbEntity
8
0
100
AcDbLine
10
68.990002123419174
20
-30.750000707805157
30
0
11
68.990002123419174
21
-45.250000707805157
31
0
0
LINE
5
125
100
AcDbEntity
8
0
100
AcDbLine
10
83.010002123419184
20
-30.750000707805157
30
0
11
68.990002123419174
21
-30.750000707805157
31
0
0
LINE
5
126
100
AcDbEntity
8
0
100
AcDbLine
10
83.010002123419184
20
-45.250000707805157
30
0
11
83.010002123419184
21
-30.750000707805157
31
0
0
LINE
5
127
100
AcDbEntity
8
0
100
AcDbLine
10
64.010002123419198
20
-45.250000707805157
30
0
11
64.010002123419198
21
-30.750000707805157
31
0
0
LINE
5
128
100
AcDbEntity
8
0
100
AcDbLine
10
49.990002123419188
20
-45.250000707805157
30
0
11
64.010002123419198
21
-45.250000707805157
31
0
0
LINE
5
129
100
AcDbEntity
8
0
100
AcDbLine
10
49.990002123419188
20
-30.750000707805157
30
0
11
49.990002123419188
21
-45.250000707805157
31
0
0
LINE
5
130
100
AcDbEntity
8
0
100
AcDbLine
10
64.010002123419198
20
-30.750000707805157
30
0
11
49.990002123419188
21
-30.750000707805157
31
0
0
LINE
5
131
100
AcDbEntity
8
0
100
AcDbLine
10
30.990002123419167
20
-45.250000707805157
30
0
11
45.010002123419177
21
-45.250000707805157
31
0
0
LINE
5
132
100
AcDbEntity
8
0
100
AcDbLine
10
45.010002123419177
20
-45.250000707805157
30
0
11
45.010002123419177
21
-30.750000707805157
31
0
0
LINE
5
133
100
AcDbEntity
8
0
100
AcDbLine
10
45.010002123419177
20
-30.750000707805157
30
0
11
30.990002123419167
21
-30.750000707805157
31
0
0
LINE
5
134
100
AcDbEntity
8
0
100
AcDbLine
10
30.990002123419167
20
-30.750000707805157
30
0
11
30.990002123419167
21
-45.250000707805157
31
0
0
LINE
5
135
100
AcDbEntity
8
0
100
AcDbLine
10
26.010002123419191
20
-45.250000707805157
30
0
11
26.010002123419191
21
-30.750000707805157
31
0
0
LINE
5
136
100
AcDbEntity
8
0
100
AcDbLine
10
11.990002123419181
20
-45.250000707805157
30
0
11
26.010002123419191
21
-45.250000707805157
31
0
0
LINE
5
137
100
AcDbEntity
8
0
100
AcDbLine
10
11.990002123419181
20
-30.750000707805157
30
0
11
11.990002123419181
21
-45.250000707805157
31
0
0
LINE
5
138
100
AcDbEntity
8
0
100
AcDbLine
10
26.010002123419191
20
-30.750000707805157
30
0
11
11.990002123419181
21
-30.750000707805157
31
0
0
LINE
5
139
100
AcDbEntity
8
0
100
AcDbLine
10
7.0100021234191701
20
-45.250000707805157
30
0
11
7.0100021234191701
21
-30.750000707805157
31
0
0
LINE
5
140
100
AcDbEntity
8
0
100
AcDbLine
10
-7.0099978765808402
20
-45.250000707805157
30
0
11
7.0100021234191701
21
-45.250000707805157
31
0
0
LINE
5
141
100
AcDbEntity
8
0
100
AcDbLine
10
-7.0099978765808402
20
-30.750000707805157
30
0
11
-7.0099978765808402
21
-45.250000707805157
31
0
0
LINE
5
142
100
AcDbEntity
8
0
100
AcDbLine
10
7.0100021234191701
20
-30.750000707805157
30
0
11
-7.0099978765808402
21
-30.750000707805157
31
0
0
LINE
5
143
100
AcDbEntity
8
0
100
AcDbLine
10
-11.989997876580816
20
-30.750000707805157
30
0
11
-26.009997876580826
21
-30.750000707805157
31
0
0
LINE
5
144
100
AcDbEntity
8
0
100
AcDbLine
10
-11.989997876580816
20
-45.250000707805157
30
0
11
-11.989997876580816
21
-30.750000707805157
31
0
0
LINE
5
145
100
AcDbEntity
8
0
100
AcDbLine
10
-26.009997876580826
20
-45.250000707805157
30
0
11
-11.989997876580816
21
-45.250000707805157
31
0
0
LINE
5
146
100
AcDbEntity
8
0
100
AcDbLine
10
-26.009997876580826
20
-30.750000707805157
30
0
11
-26.009997876580826
21
-45.250000707805157
31
0
0
LINE
5
147
100
AcDbEntity
8
0
100
AcDbLine
10
-45.009997876580826
20
-45.250000707805157
30
0
11
-30.989997876580819
21
-45.250000707805157
31
0
0
LINE
5
148
100
AcDbEntity
8
0
100
AcDbLine
10
-30.989997876580819
20
-45.250000707805157
30
0
11
-30.989997876580819
21
-30.750000707805157
31
0
0
LINE
5
149
100
AcDbEntity
8
0
100
AcDbLine
10
-45.009997876580826
20
-30.750000707805157
30
0
11
-45.009997876580826
21
-45.250000707805157
31
0
0
LINE
5
150
100
AcDbEntity
8
0
100
AcDbLine
10
-30.989997876580819
20
-30.750000707805157
30
0
11
-45.009997876580826
21
-30.750000707805157
31
0
0
LINE
5
151
100
AcDbEntity
8
0
100
AcDbLine
10
-49.989997876580802
20
-45.250000707805157
30
0
11
-49.989997876580802
21
-30.750000707805157
31
0
0
LINE
5
152
100
AcDbEntity
8
0
100
AcDbLine
10
-64.009997876580812
20
-45.250000707805157
30
0
11
-49.989997876580802
21
-45.250000707805157
31
0
0
LINE
5
153
100
AcDbEntity
8
0
100
AcDbLine
10
-64.009997876580812
20
-30.750000707805157
30
0
11
-64.009997876580812
21
-45.250000707805157
31
0
0
LINE
5
154
100
AcDbEntity
8
0
100
AcDbLine
10
-49.989997876580802
20
-30.750000707805157
30
0
11
-64.009997876580812
21
-30.750000707805157
31
0
0
LINE
5
155
100
AcDbEntity
8
0
100
AcDbLine
10
-68.98999787658083
20
-45.250000707805157
30
0
11
-68.98999787658083
21
-30.750000707805157
31
0
0
LINE
5
156
100
AcDbEntity
8
0
100
AcDbLine
10
-83.00999787658084
20
-45.250000707805157
30
0
11
-68.98999787658083
21
-45.250000707805157
31
0
0
LINE
5
157
100
AcDbEntity
8
0
100
AcDbLine
10
-68.98999787658083
20
-30.750000707805157
30
0
11
-83.00999787658084
21
-30.750000707805157
31
0
0
LINE
5
158
100
AcDbEntity
8
0
100
AcDbLine
10
-83.00999787658084
20
-30.750000707805157
30
0
11
-83.00999787658084
21
-45.250000707805157
31
0
0
LINE
5
159
100
AcDbEntity
8
0
100
AcDbLine
10
-87.989997876580816
20
-45.250000707805157
30
0
11
-87.989997876580816
21
-30.750000707805157
31
0
0
LINE
5
160
100
AcDbEntity
8
0
100
AcDbLine
10
-102.00999787658083
20
-45.250000707805157
30
0
11
-87.989997876580816
21
-45.250000707805157
31
0
0
LINE
5
161
100
AcDbEntity
8
0
100
AcDbLine
10
-102.00999787658083
20
-30.750000707805157
30
0
11
-102.00999787658083
21
-45.250000707805157
31
0
0
LINE
5
162
100
AcDbEntity
8
0
100
AcDbLine
10
-87.989997876580816
20
-30.750000707805157
30
0
11
-102.00999787658083
21
-30.750000707805157
31
0
0
LWPOLYLINE
5
163
100
AcDbEntity
8
0
100
AcDbPolyline
90
8
70
1
43
0.0
10
-106.98999787658083
20
-30.750000707805157
10
-106.98999787658083
20
-45.250000707805157
10
-121.00999787658084
20
-45.250000707805157
10
-125.98999787658082
20
-45.250000707805157
10
-140.00999787658083
20
-45.250000707805157
10
-140.00999787658083
20
-30.750000707805157
10
-125.98999787658082
20
-30.750000707805157
10
-121.00999787658084
20
-30.750000707805157
0
LINE
5
164
100
AcDbEntity
8
0
100
AcDbLine
10
142.50000212341919
20
-28.500000707805153
30
0
11
114.00000212341919
21
-28.500000707805153
31
0
0
LINE
5
165
100
AcDbEntity
8
0
100
AcDbLine
10
114.00000212341919
20
-28.500000707805153
30
0
11
114.00000212341919
21
-9.5000007078051514
31
0
0
LINE
5
166
100
AcDbEntity
8
0
100
AcDbLine
10
142.50000212341919
20
-28.500000707805153
30
0
11
135.26000212341918
21
-28.500000707805153
31
0
0
LWPOLYLINE
5
167
100
AcDbEntity
8
0
100
AcDbPolyline
90
4
70
1
43
0.0
10
121.24000212341919
20
-26.250000707805153
10
135.26000212341918
20
-26.250000707805153
10
135.26000212341918
20
-11.75000070780515
10
121.24000212341919
20
-11.75000070780515
0
LWPOLYLINE
5
168
100
AcDbEntity
8
0
100
AcDbPolyline
90
4
70
1
43
0.0
10
97.490001698732385
20
-26.250000707805153
10
111.51000169873237
20
-26.250000707805153
10
111.51000169873237
20
-11.750000707805153
10
97.490001698732385
20
-11.750000707805153
0
LWPOLYLINE
5
169
100
AcDbEntity
8
0
100
AcDbPolyline
90
4
70
1
43
0.0
10
78.490001698732385
20
-26.250000707805153
10
92.510001698732381
20
-26.250000707805153
10
92.510001698732381
20
-11.750000707805153
10
78.490001698732385
20
-11.750000707805153
0
LWPOLYLINE
5
170
100
AcDbEntity
8
0
100
AcDbPolyline
90
4
70
1
43
0.0
10
59.490001698732371
20
-26.250000707805153
10
73.510001698732367
20
-26.250000707805153
10
73.510001698732367
20
-11.750000707805153
10
59.490001698732371
20
-11.750000707805153
0
LWPOLYLINE
5
171
100
AcDbEntity
8
0
100
AcDbPolyline
90
4
70
1
43
0.0
10
54.510001698732381
20
-26.250000707805153
10
54.510001698732381
20
-11.750000707805153
10
40.490001698732385
20
-11.750000707805153
10
40.490001698732385
20
-26.250000707805153
0
LWPOLYLINE
5
172
100
AcDbEntity
8
0
100
AcDbPolyline
90
4
70
1
43
0.0
10
21.490001698732364
20
-26.250000707805153
10
35.510001698732353
20
-26.250000707805153
10
35.510001698732353
20
-11.750000707805153
10
21.490001698732364
20
-11.750000707805153
0
LWPOLYLINE
5
173
100
AcDbEntity
8
0
100
AcDbPolyline
90
4
70
1
43
0.0
10
16.510001698732371
20
-26.250000707805153
10
16.510001698732371
20
-11.750000707805153
10
2.4900016987323781
20
-11.750000707805153
10
2.4900016987323781
20
-26.250000707805153
0
LWPOLYLINE
5
174
100
AcDbEntity
8
0
100
AcDbPolyline
90
4
70
1
43
0.0
10
-2.4899983012676508
20
-26.250000707805153
10
-2.4899983012676508
20
-11.750000707805153
10
-16.509998301267643
20
-11.750000707805153
10
-16.509998301267643
20
-26.250000707805153
0
LWPOLYLINE
5
175
100
AcDbEntity
8
0
100
AcDbPolyline
90
4
70
1
43
0.0
10
-21.489998301267637
20
-26.250000707805153
10
-21.489998301267637
20
-11.750000707805153
10
-35.509998301267629
20
-11.750000707805153
10
-35.509998301267629
20
-26.250000707805153
0
LWPOLYLINE
5
176
100
AcDbEntity
8
0
100
AcDbPolyline
90
4
70
1
43
0.0
10
-54.50999830126765
20
-26.250000707805153
10
-40.489998301267661
20
-26.250000707805153
10
-40.489998301267661
20
-11.750000707805153
10
-54.50999830126765
20
-11.750000707805153
0
LWPOLYLINE
5
177
100
AcDbEntity
8
0
100
AcDbPolyline
90
4
70
1
43
0.0
10
-59.489998301267647
20
-26.250000707805153
10
-59.489998301267647
20
-11.750000707805153
10
-73.509998301267643
20
-11.750000707805153
10
-73.509998301267643
20
-26.250000707805153
0
LWPOLYLINE
5
178
100
AcDbEntity
8
0
100
AcDbPolyline
90
4
70
1
43
0.0
10
-78.489998301267661
20
-11.750000707805153
10
-92.509998301267657
20
-11.750000707805153
10
-92.509998301267657
20
-26.250000707805153
10
-78.489998301267661
20
-26.250000707805153
0
LWPOLYLINE
5
179
100
AcDbEntity
8
0
100
AcDbPolyline
90
4
70
1
43
0.0
10
-97.489998301267647
20
-26.250000707805153
10
-97.489998301267647
20
-11.750000707805153
10
-111.50999830126764
20
-11.750000707805153
10
-111.50999830126764
20
-26.250000707805153
0
LINE
5
180
100
AcDbEntity
8
0
100
AcDbLine
10
-142.49999787658078
20
-28.500000707805153
30
0
11
-142.49999787658081
21
-9.5000007078051496
31
0
0
LINE
5
181
100
AcDbEntity
8
0
100
AcDbLine
10
-142.49999787658078
20
-28.500000707805153
30
0
11
-113.99999787658078
21
-28.5000007078051
31
0
0
LINE
5
182
100
AcDbEntity
8
0
100
AcDbLine
10
-113.99999787658078
20
-28.5000007078051
30
0
11
-113.99999787658078
21
-9.5000007078051496
31
0
0
LINE
5
183
100
AcDbEntity
8
0
100
AcDbLine
10
-142.49999787658078
20
-28.500000707805153
30
0
11
-135.25999787658077
21
-28.500000707805153
31
0
0
LWPOLYLINE
5
184
100
AcDbEntity
8
0
100
AcDbPolyline
90
4
70
1
43
0.0
10
-121.23999787658079
20
-26.250000707805153
10
-135.25999787658077
20
-26.250000707805153
10
-135.25999787658077
20
-11.750000707805153
10
-121.23999787658079
20
-11.750000707805153
0
LINE
5
185
100
AcDbEntity
8
0
100
AcDbLine
10
142.50000212341919
20
-9.5000007078051496
30
0
11
109.25000212341916
21
-9.5000007078051496
31
0
0
LINE
5
186
100
AcDbEntity
8
0
100
AcDbLine
10
109.25000212341916
20
-9.5000007078051496
30
0
11
109.25000212341916
21
9.4999992921948522
31
0
0
LINE
5
187
100
AcDbEntity
8
0
100
AcDbLine
10
109.25000212341916
20
-9.5000007078051496
30
0
11
109.25000212341916
21
-7.2500007078051496
31
0
0
LINE
5
188
100
AcDbEntity
8
0
100
AcDbLine
10
118.86500212341917
20
-7.2500007078051496
30
0
11
132.88500212341918
21
-7.2500007078051496
31
0
0
LINE
5
189
100
AcDbEntity
8
0
100
AcDbLine
10
132.88500212341918
20
7.2499992921948495
30
0
11
118.86500212341917
21
7.2499992921948495
31
0
0
LINE
5
190
100
AcDbEntity
8
0
100
AcDbLine
10
118.86500212341917
20
7.2499992921948495
30
0
11
118.86500212341917
21
-7.2500007078051496
31
0
0
LINE
5
191
100
AcDbEntity
8
0
100
AcDbLine
10
135.26000212341918
20
-7.2500007078051487
30
0
11
121.24000212341919
21
-7.2500007078051487
31
0
0
LINE
5
192
100
AcDbEntity
8
0
100
AcDbLine
10
121.24000212341919
20
7.2499992921948531
30
0
11
135.26000212341918
21
7.2499992921948531
31
0
0
LINE
5
193
100
AcDbEntity
8
0
100
AcDbLine
10
142.50000212341919
20
-9.5000007078051496
30
0
11
142.50000212341919
21
-7.2500007078051496
31
0
0
LINE
5
194
100
AcDbEntity
8
0
100
AcDbLine
10
135.26000212341918
20
-7.2500007078051487
30
0
11
137.63500212341918
21
-7.2500007078051496
31
0
0
LINE
5
195
100
AcDbEntity
8
0
100
AcDbLine
10
137.63500212341918
20
-7.2500007078051496
30
0
11
137.63500212341918
21
7.2499992921948495
31
0
0
LINE
5
196
100
AcDbEntity
8
0
100
AcDbLine
10
137.63500212341918
20
7.2499992921948495
30
0
11
135.26000212341918
21
7.2499992921948531
31
0
0
LINE
5
197
100
AcDbEntity
8
0
100
AcDbLine
10
137.63500212341918
20
11.749999292194854
30
0
11
137.63500212341918
21
26.24999929219485
31
0
0
LINE
5
198
100
AcDbEntity
8
0
100
AcDbLine
10
135.26000212341918
20
11.749999292194854
30
0
11
137.63500212341918
21
11.749999292194854
31
0
0
LINE
5
199
100
AcDbEntity
8
0
100
AcDbLine
10
135.26000212341918
20
11.749999292194854
30
0
11
121.24000212341919
21
11.749999292194854
31
0
0
LINE
5
200
100
AcDbEntity
8
0
100
AcDbLine
10
118.86500212341917
20
11.749999292194854
30
0
11
132.88500212341918
21
11.749999292194854
31
0
0
LINE
5
201
100
AcDbEntity
8
0
100
AcDbLine
10
132.88500212341918
20
26.24999929219485
30
0
11
118.86500212341917
21
26.24999929219485
31
0
0
LINE
5
202
100
AcDbEntity
8
0
100
AcDbLine
10
121.24000212341919
20
26.249999292194858
30
0
11
135.26000212341918
21
26.249999292194858
31
0
0
LINE
5
203
100
AcDbEntity
8
0
100
AcDbLine
10
137.63500212341918
20
26.24999929219485
30
0
11
135.26000212341918
21
26.249999292194858
31
0
0
LINE
5
204
100
AcDbEntity
8
0
100
AcDbLine
10
142.50000212341919
20
9.499999292194854
30
0
11
99.750002123419179
21
9.499999292194854
31
0
0
LINE
5
205
100
AcDbEntity
8
0
100
AcDbLine
10
99.750002123419179
20
9.499999292194854
30
0
11
99.750002123419179
21
28.499999292194858
31
0
0
LINE
5
206
100
AcDbEntity
8
0
100
AcDbLine
10
99.750002123419179
20
9.499999292194854
30
0
11
99.750002123419179
21
11.749999292194854
31
0
0
LINE
5
207
100
AcDbEntity
8
0
100
AcDbLine
10
118.86500212341917
20
11.749999292194854
30
0
11
102.24000212341919
21
11.749999292194854
31
0
0
LINE
5
208
100
AcDbEntity
8
0
100
AcDbLine
10
102.24000212341919
20
11.749999292194854
30
0
11
102.24000212341919
21
26.249999292194858
31
0
0
LINE
5
209
100
AcDbEntity
8
0
100
AcDbLine
10
118.86500212341917
20
26.24999929219485
30
0
11
102.24000212341919
21
26.249999292194858
31
0
0
LINE
5
210
100
AcDbEntity
8
0
100
AcDbLine
10
142.50000212341919
20
28.499999292194858
30
0
11
118.75000212341918
21
28.499999292194858
31
0
0
LWPOLYLINE
5
211
100
AcDbEntity
8
0
100
AcDbPolyline
90
4
70
1
43
0.0
10
137.63500212341916
20
30.749999292194858
10
123.61500212341917
20
30.749999292194858
10
123.61500212341917
20
45.249999292194865
10
137.63500212341916
20
45.249999292194865
0
LWPOLYLINE
5
212
100
AcDbEntity
8
0
100
AcDbPolyline
90
4
70
1
43
0.0
10
113.88500212341917
20
30.749999292194858
10
99.865002123419174
20
30.749999292194858
10
99.865002123419174
20
45.249999292194865
10
113.88500212341917
20
45.249999292194865
0
LWPOLYLINE
5
213
100
AcDbEntity
8
0
100
AcDbPolyline
90
4
70
1
43
0.0
10
90.13500212341917
20
30.749999292194858
10
76.115002123419174
20
30.749999292194858
10
76.115002123419174
20
45.249999292194865
10
90.13500212341917
20
45.249999292194865
0
LWPOLYLINE
5
214
100
AcDbEntity
8
0
100
AcDbPolyline
90
4
70
1
43
0.0
10
92.740002123419174
20
-7.2500007078051496
10
106.76000212341917
20
-7.2500007078051496
10
106.76000212341917
20
7.2499992921948495
10
92.740002123419174
20
7.2499992921948495
0
LWPOLYLINE
5
215
100
AcDbEntity
8
0
100
AcDbPolyline
90
4
70
1
43
0.0
10
73.740002123419188
20
-7.2500007078051496
10
87.760002123419184
20
-7.2500007078051496
10
87.760002123419184
20
7.2499992921948495
10
73.740002123419188
20
7.2499992921948495
0
LWPOLYLINE
5
216
100
AcDbEntity
8
0
100
AcDbPolyline
90
4
70
1
43
0.0
10
54.740002123419167
20
-7.2500007078051496
10
68.760002123419156
20
-7.2500007078051496
10
68.760002123419156
20
7.2499992921948495
10
54.740002123419167
20
7.2499992921948495
0
LWPOLYLINE
5
217
100
AcDbEntity
8
0
100
AcDbPolyline
90
4
70
1
43
0.0
10
49.76000212341917
20
-7.2500007078051496
10
49.76000212341917
20
7.2499992921948495
10
35.740002123419181
20
7.2499992921948495
10
35.740002123419181
20
-7.2500007078051496
0
LWPOLYLINE
5
218
100
AcDbEntity
8
0
100
AcDbPolyline
90
4
70
1
43
0.0
10
30.760002123419152
20
-7.2500007078051496
10
30.760002123419152
20
7.2499992921948495
10
16.74000212341916
20
7.2499992921948495
10
16.74000212341916
20
-7.2500007078051496
0
LWPOLYLINE
5
219
100
AcDbEntity
8
0
100
AcDbPolyline
90
4
70
1
43
0.0
10
11.760002123419167
20
-7.2500007078051496
10
11.760002123419167
20
7.2499992921948495
10
-2.259997876580826
20
7.2499992921948495
10
-2.259997876580826
20
-7.2500007078051496
0
LWPOLYLINE
5
220
100
AcDbEntity
8
0
100
AcDbPolyline
90
4
70
1
43
0.0
10
-7.2399978765808548
20
7.2499992921948495
10
-21.259997876580847
20
7.2499992921948495
10
-21.259997876580847
20
-7.2500007078051496
10
-7.2399978765808548
20
-7.2500007078051496
0
LWPOLYLINE
5
221
100
AcDbEntity
8
0
100
AcDbPolyline
90
4
70
1
43
0.0
10
-40.259997876580833
20
-7.2500007078051496
10
-26.239997876580841
20
-7.2500007078051496
10
-26.239997876580841
20
7.2499992921948495
10
-40.259997876580833
20
7.2499992921948495
0
LWPOLYLINE
5
222
100
AcDbEntity
8
0
100
AcDbPolyline
90
4
70
1
43
0.0
10
-59.259997876580819
20
-7.2500007078051496
10
-45.23999787658083
20
-7.2500007078051496
10
-45.23999787658083
20
7.2499992921948495
10
-59.259997876580819
20
7.2499992921948495
0
LWPOLYLINE
5
223
100
AcDbEntity
8
0
100
AcDbPolyline
90
4
70
1
43
0.0
10
-64.239997876580844
20
-7.2500007078051496
10
-64.239997876580844
20
7.2499992921948495
10
-78.25999787658084
20
7.2499992921948495
10
-78.25999787658084
20
-7.2500007078051496
0
LWPOLYLINE
5
224
100
AcDbEntity
8
0
100
AcDbPolyline
90
4
70
1
43
0.0
10
-83.23999787658083
20
7.2499992921948495
10
-97.259997876580826
20
7.2499992921948495
10
-97.259997876580826
20
-7.2500007078051496
10
-83.23999787658083
20
-7.2500007078051496
0
LINE
5
225
100
AcDbEntity
8
0
100
AcDbLine
10
-142.49999787658081
20
9.499999292194854
30
0
11
-142.49999787658081
21
-9.500000707805146
31
0
0
LINE
5
226
100
AcDbEntity
8
0
100
AcDbLine
10
-142.49999787658081
20
-9.500000707805146
30
0
11
-99.749997876580807
21
-9.5000007078050643
31
0
0
LINE
5
227
100
AcDbEntity
8
0
100
AcDbLine
10
-99.749997876580807
20
-9.5000007078050643
30
0
11
-99.749997876580849
21
9.4999992921949357
31
0
0
LINE
5
228
100
AcDbEntity
8
0
100
AcDbLine
10
-142.49999787658081
20
-9.500000707805146
30
0
11
-142.49999787658081
21
-7.2500007078051452
31
0
0
LINE
5
229
100
AcDbEntity
8
0
100
AcDbLine
10
-142.49999787658081
20
-7.2500007078051452
30
0
11
-140.00999787658083
21
-7.2500007078051452
31
0
0
LWPOLYLINE
5
230
100
AcDbEntity
8
0
100
AcDbPolyline
90
4
70
1
43
0.0
10
-140.00999787658083
20
-7.2500007078051585
10
-102.23999787658082
20
-7.2500007078051585
10
-102.23999787658082
20
7.2499992921948433
10
-140.00999787658083
20
7.2499992921948433
0
LWPOLYLINE
5
231
100
AcDbEntity
8
0
100
AcDbPolyline
90
4
70
1
43
0.0
10
83.240002123419174
20
11.749999292194854
10
97.26000212341917
20
11.749999292194854
10
97.26000212341917
20
26.24999929219485
10
83.240002123419174
20
26.24999929219485
0
LWPOLYLINE
5
232
100
AcDbEntity
8
0
100
AcDbPolyline
90
4
70
1
43
0.0
10
64.240002123419202
20
11.749999292194854
10
78.260002123419184
20
11.749999292194854
10
78.260002123419184
20
26.24999929219485
10
64.240002123419202
20
26.24999929219485
0
LWPOLYLINE
5
233
100
AcDbEntity
8
0
100
AcDbPolyline
90
4
70
1
43
0.0
10
59.26000212341917
20
11.749999292194854
10
59.26000212341917
20
26.24999929219485
10
45.240002123419174
20
26.24999929219485
10
45.240002123419174
20
11.749999292194854
0
LWPOLYLINE
5
234
100
AcDbEntity
8
0
100
AcDbPolyline
90
4
70
1
43
0.0
10
40.260002123419184
20
11.749999292194854
10
40.260002123419184
20
26.24999929219485
10
26.240002123419188
20
26.24999929219485
10
26.240002123419188
20
11.749999292194854
0
LWPOLYLINE
5
235
100
AcDbEntity
8
0
100
AcDbPolyline
90
4
70
1
43
0.0
10
7.2400021234191669
20
11.749999292194854
10
21.260002123419159
20
11.749999292194854
10
21.260002123419159
20
26.24999929219485
10
7.2400021234191669
20
26.24999929219485
0
LWPOLYLINE
5
236
100
AcDbEntity
8
0
100
AcDbPolyline
90
4
70
1
43
0.0
10
2.2600021234191736
20
11.749999292194854
10
2.2600021234191736
20
26.24999929219485
10
-11.759997876580819
20
26.24999929219485
10
-11.759997876580819
20
11.749999292194854
0
LWPOLYLINE
5
237
100
AcDbEntity
8
0
100
AcDbPolyline
90
4
70
1
43
0.0
10
-16.739997876580848
20
11.749999292194854
10
-16.739997876580848
20
26.24999929219485
10
-30.75999787658084
20
26.24999929219485
10
-30.75999787658084
20
11.749999292194854
0
LWPOLYLINE
5
238
100
AcDbEntity
8
0
100
AcDbPolyline
90
4
70
1
43
0.0
10
-35.73999787658083
20
11.749999292194854
10
-35.73999787658083
20
26.24999929219485
10
-49.759997876580826
20
26.24999929219485
10
-49.759997876580826
20
11.749999292194854
0
LWPOLYLINE
5
239
100
AcDbEntity
8
0
100
AcDbPolyline
90
4
70
1
43
0.0
10
-68.759997876580854
20
11.749999292194854
10
-54.739997876580858
20
11.749999292194854
10
-54.739997876580858
20
26.24999929219485
10
-68.759997876580854
20
26.24999929219485
0
LWPOLYLINE
5
240
100
AcDbEntity
8
0
100
AcDbPolyline
90
4
70
1
43
0.0
10
-73.739997876580844
20
11.749999292194854
10
-73.739997876580844
20
26.24999929219485
10
-87.759997876580826
20
26.24999929219485
10
-87.759997876580826
20
11.749999292194854
0
LINE
5
241
100
AcDbEntity
8
0
100
AcDbLine
10
-142.49999787658081
20
9.499999292194854
30
0
11
-142.49999787658081
21
28.499999292194858
31
0
0
LINE
5
242
100
AcDbEntity
8
0
100
AcDbLine
10
-142.49999787658081
20
9.499999292194854
30
0
11
-90.249997876580821
21
9.499999292194854
31
0
0
LINE
5
243
100
AcDbEntity
8
0
100
AcDbLine
10
-90.249997876580821
20
9.499999292194854
30
0
11
-90.249997876580821
21
28.499999292194858
31
0
0
LINE
5
244
100
AcDbEntity
8
0
100
AcDbLine
10
-140.00999787658083
20
7.2499992921948433
30
0
11
-140.00999787658083
21
11.749999292194842
31
0
0
LWPOLYLINE
5
245
100
AcDbEntity
8
0
100
AcDbPolyline
90
4
70
1
43
0.0
10
-140.00999787658083
20
11.749999292194854
10
-92.73999787658083
20
11.749999292194854
10
-92.73999787658083
20
26.249999292194858
10
-140.00999787658083
20
26.249999292194858
0
LINE
5
246
100
AcDbEntity
8
0
100
AcDbLine
10
142.50000212341919
20
28.499999292194858
30
0
11
71.250002123419179
21
28.499999292194858
31
0
0
LINE
5
247
100
AcDbEntity
8
0
100
AcDbLine
10
71.250002123419179
20
28.499999292194858
30
0
11
71.250002123419179
21
47.499999292194815
31
0
0
LINE
5
248
100
AcDbEntity
8
0
100
AcDbLine
10
71.250002123419179
20
28.499999292194858
30
0
11
-47.499997876580821
21
28.499999292194858
31
0
0
LINE
5
249
100
AcDbEntity
8
0
100
AcDbLine
10
-47.499997876580821
20
28.499999292194858
30
0
11
-47.499997876580821
21
47.499999292194858
31
0
0
LINE
5
250
100
AcDbEntity
8
0
100
AcDbLine
10
-142.49999787658081
20
28.499999292194858
30
0
11
-142.49999787658081
21
47.499999292194858
31
0
0
LINE
5
251
100
AcDbEntity
8
0
100
AcDbLine
10
-142.49999787658081
20
28.499999292194858
30
0
11
-118.74999787658082
21
28.499999292194858
31
0
0
LINE
5
252
100
AcDbEntity
8
0
100
AcDbLine
10
-142.49999787658081
20
28.499999292194858
30
0
11
-142.49999787658081
21
30.749999292194858
31
0
0
LWPOLYLINE
5
253
100
AcDbEntity
8
0
100
AcDbPolyline
90
4
70
1
43
0.0
10
-123.61499787658083
20
30.749999292194858
10
-137.63499787658083
20
30.749999292194858
10
-137.63499787658083
20
45.249999292194865
10
-123.61499787658083
20
45.249999292194865
0
LWPOLYLINE
5
254
100
AcDbEntity
8
0
100
AcDbPolyline
90
4
70
1
43
0.0
10
-99.86499787658083
20
30.749999292194858
10
-113.88499787658083
20
30.749999292194858
10
-113.88499787658083
20
45.249999292194865
10
-99.86499787658083
20
45.249999292194865
0
LWPOLYLINE
5
255
100
AcDbEntity
8
0
100
AcDbPolyline
90
4
70
1
43
0.0
10
-52.36499787658083
20
30.749999292194858
10
-66.384997876580826
20
30.749999292194858
10
-66.384997876580826
20
45.249999292194865
10
-52.36499787658083
20
45.249999292194865
0
LWPOLYLINE
5
256
100
AcDbEntity
8
0
100
AcDbPolyline
90
4
70
1
43
0.0
10
-76.11499787658083
20
30.749999292194858
10
-90.134997876580826
20
30.749999292194858
10
-90.134997876580826
20
45.249999292194865
10
-76.11499787658083
20
45.249999292194865
0
LWPOLYLINE
5
257
100
AcDbEntity
8
0
100
AcDbPolyline
90
4
70
1
43
0.0
10
-45.009997876580819
20
30.749999292194858
10
68.760002123419184
20
30.749999292194858
10
68.760002123419184
20
45.249999292194858
10
-45.009997876580819
20
45.249999292194858
0
ENDSEC
0
SECTION
2
OBJECTS
0
DICTIONARY
5
C
100
AcDbDictionary
3
ACAD_GROUP
350
D
3
ACAD_MLINESTYLE
350
17
0
DICTIONARY
5
D
100
AcDbDictionary
0
DICTIONARY
5
1A
330
C
100
AcDbDictionary
0
DICTIONARY
5
17
100
AcDbDictionary
0
ENDSEC
0
EOF
