solid OpenSCAD_Model
  facet normal 1 -0 0
    outer loop
      vertex 6.25 6.25 80
      vertex 6.25 51.25 11
      vertex 6.25 51.25 80
    endloop
  endfacet
  facet normal 1 0 0
    outer loop
      vertex 6.25 51.25 11
      vertex 6.25 6.25 80
      vertex 6.25 6.25 11
    endloop
  endfacet
  facet normal -1 0 0
    outer loop
      vertex 51.25 6.25 11
      vertex 51.25 51.25 80
      vertex 51.25 51.25 11
    endloop
  endfacet
  facet normal -1 -0 0
    outer loop
      vertex 51.25 51.25 80
      vertex 51.25 6.25 11
      vertex 51.25 6.25 80
    endloop
  endfacet
  facet normal -0 0 1
    outer loop
      vertex 6.25 51.25 11
      vertex 51.25 6.25 11
      vertex 51.25 51.25 11
    endloop
  endfacet
  facet normal 0 0 1
    outer loop
      vertex 51.25 6.25 11
      vertex 6.25 51.25 11
      vertex 6.25 6.25 11
    endloop
  endfacet
  facet normal 0 1 -0
    outer loop
      vertex 51.25 6.25 11
      vertex 6.25 6.25 80
      vertex 51.25 6.25 80
    endloop
  endfacet
  facet normal 0 1 0
    outer loop
      vertex 6.25 6.25 80
      vertex 51.25 6.25 11
      vertex 6.25 6.25 11
    endloop
  endfacet
  facet normal 0 -1 0
    outer loop
      vertex 6.25 51.25 11
      vertex 51.25 51.25 80
      vertex 6.25 51.25 80
    endloop
  endfacet
  facet normal 0 -1 -0
    outer loop
      vertex 51.25 51.25 80
      vertex 6.25 51.25 11
      vertex 51.25 51.25 11
    endloop
  endfacet
  facet normal 1 -0 0
    outer loop
      vertex 6.25 57.5 80
      vertex 6.25 102.5 11
      vertex 6.25 102.5 80
    endloop
  endfacet
  facet normal 1 0 0
    outer loop
      vertex 6.25 102.5 11
      vertex 6.25 57.5 80
      vertex 6.25 57.5 11
    endloop
  endfacet
  facet normal -1 0 0
    outer loop
      vertex 51.25 57.5 11
      vertex 51.25 102.5 80
      vertex 51.25 102.5 11
    endloop
  endfacet
  facet normal -1 -0 0
    outer loop
      vertex 51.25 102.5 80
      vertex 51.25 57.5 11
      vertex 51.25 57.5 80
    endloop
  endfacet
  facet normal 0 -1 0
    outer loop
      vertex 6.25 102.5 11
      vertex 51.25 102.5 80
      vertex 6.25 102.5 80
    endloop
  endfacet
  facet normal 0 -1 -0
    outer loop
      vertex 51.25 102.5 80
      vertex 6.25 102.5 11
      vertex 51.25 102.5 11
    endloop
  endfacet
  facet normal -0 0 1
    outer loop
      vertex 6.25 102.5 11
      vertex 51.25 57.5 11
      vertex 51.25 102.5 11
    endloop
  endfacet
  facet normal 0 0 1
    outer loop
      vertex 51.25 57.5 11
      vertex 6.25 102.5 11
      vertex 6.25 57.5 11
    endloop
  endfacet
  facet normal 0 1 -0
    outer loop
      vertex 51.25 57.5 11
      vertex 6.25 57.5 80
      vertex 51.25 57.5 80
    endloop
  endfacet
  facet normal 0 1 0
    outer loop
      vertex 6.25 57.5 80
      vertex 51.25 57.5 11
      vertex 6.25 57.5 11
    endloop
  endfacet
  facet normal 1 -0 0
    outer loop
      vertex 6.25 108.75 80
      vertex 6.25 153.75 11
      vertex 6.25 153.75 80
    endloop
  endfacet
  facet normal 1 0 0
    outer loop
      vertex 6.25 153.75 11
      vertex 6.25 108.75 80
      vertex 6.25 108.75 11
    endloop
  endfacet
  facet normal -1 0 0
    outer loop
      vertex 51.25 108.75 11
      vertex 51.25 153.75 80
      vertex 51.25 153.75 11
    endloop
  endfacet
  facet normal -1 -0 0
    outer loop
      vertex 51.25 153.75 80
      vertex 51.25 108.75 11
      vertex 51.25 108.75 80
    endloop
  endfacet
  facet normal 0 -1 0
    outer loop
      vertex 6.25 153.75 11
      vertex 51.25 153.75 80
      vertex 6.25 153.75 80
    endloop
  endfacet
  facet normal 0 -1 -0
    outer loop
      vertex 51.25 153.75 80
      vertex 6.25 153.75 11
      vertex 51.25 153.75 11
    endloop
  endfacet
  facet normal -0 0 1
    outer loop
      vertex 6.25 153.75 11
      vertex 51.25 108.75 11
      vertex 51.25 153.75 11
    endloop
  endfacet
  facet normal 0 0 1
    outer loop
      vertex 51.25 108.75 11
      vertex 6.25 153.75 11
      vertex 6.25 108.75 11
    endloop
  endfacet
  facet normal 0 1 -0
    outer loop
      vertex 51.25 108.75 11
      vertex 6.25 108.75 80
      vertex 51.25 108.75 80
    endloop
  endfacet
  facet normal 0 1 0
    outer loop
      vertex 6.25 108.75 80
      vertex 51.25 108.75 11
      vertex 6.25 108.75 11
    endloop
  endfacet
  facet normal 1 -0 0
    outer loop
      vertex 57.5 6.25 80
      vertex 57.5 51.25 11
      vertex 57.5 51.25 80
    endloop
  endfacet
  facet normal 1 0 0
    outer loop
      vertex 57.5 51.25 11
      vertex 57.5 6.25 80
      vertex 57.5 6.25 11
    endloop
  endfacet
  facet normal -1 0 0
    outer loop
      vertex 102.5 6.25 11
      vertex 102.5 51.25 80
      vertex 102.5 51.25 11
    endloop
  endfacet
  facet normal -1 -0 0
    outer loop
      vertex 102.5 51.25 80
      vertex 102.5 6.25 11
      vertex 102.5 6.25 80
    endloop
  endfacet
  facet normal 0 -1 0
    outer loop
      vertex 57.5 51.25 11
      vertex 102.5 51.25 80
      vertex 57.5 51.25 80
    endloop
  endfacet
  facet normal 0 -1 -0
    outer loop
      vertex 102.5 51.25 80
      vertex 57.5 51.25 11
      vertex 102.5 51.25 11
    endloop
  endfacet
  facet normal -0 0 1
    outer loop
      vertex 57.5 51.25 11
      vertex 102.5 6.25 11
      vertex 102.5 51.25 11
    endloop
  endfacet
  facet normal 0 0 1
    outer loop
      vertex 102.5 6.25 11
      vertex 57.5 51.25 11
      vertex 57.5 6.25 11
    endloop
  endfacet
  facet normal 0 1 -0
    outer loop
      vertex 102.5 6.25 11
      vertex 57.5 6.25 80
      vertex 102.5 6.25 80
    endloop
  endfacet
  facet normal 0 1 0
    outer loop
      vertex 57.5 6.25 80
      vertex 102.5 6.25 11
      vertex 57.5 6.25 11
    endloop
  endfacet
  facet normal 1 -0 0
    outer loop
      vertex 57.5 57.5 80
      vertex 57.5 102.5 11
      vertex 57.5 102.5 80
    endloop
  endfacet
  facet normal 1 0 0
    outer loop
      vertex 57.5 102.5 11
      vertex 57.5 57.5 80
      vertex 57.5 57.5 11
    endloop
  endfacet
  facet normal -1 0 0
    outer loop
      vertex 102.5 57.5 11
      vertex 102.5 102.5 80
      vertex 102.5 102.5 11
    endloop
  endfacet
  facet normal -1 -0 0
    outer loop
      vertex 102.5 102.5 80
      vertex 102.5 57.5 11
      vertex 102.5 57.5 80
    endloop
  endfacet
  facet normal 0 -1 0
    outer loop
      vertex 57.5 102.5 11
      vertex 102.5 102.5 80
      vertex 57.5 102.5 80
    endloop
  endfacet
  facet normal 0 -1 -0
    outer loop
      vertex 102.5 102.5 80
      vertex 57.5 102.5 11
      vertex 102.5 102.5 11
    endloop
  endfacet
  facet normal -0 0 1
    outer loop
      vertex 57.5 102.5 11
      vertex 102.5 57.5 11
      vertex 102.5 102.5 11
    endloop
  endfacet
  facet normal 0 0 1
    outer loop
      vertex 102.5 57.5 11
      vertex 57.5 102.5 11
      vertex 57.5 57.5 11
    endloop
  endfacet
  facet normal 0 1 -0
    outer loop
      vertex 102.5 57.5 11
      vertex 57.5 57.5 80
      vertex 102.5 57.5 80
    endloop
  endfacet
  facet normal 0 1 0
    outer loop
      vertex 57.5 57.5 80
      vertex 102.5 57.5 11
      vertex 57.5 57.5 11
    endloop
  endfacet
  facet normal 1 -0 0
    outer loop
      vertex 57.5 108.75 80
      vertex 57.5 153.75 11
      vertex 57.5 153.75 80
    endloop
  endfacet
  facet normal 1 0 0
    outer loop
      vertex 57.5 153.75 11
      vertex 57.5 108.75 80
      vertex 57.5 108.75 11
    endloop
  endfacet
  facet normal -1 0 0
    outer loop
      vertex 102.5 108.75 11
      vertex 102.5 153.75 80
      vertex 102.5 153.75 11
    endloop
  endfacet
  facet normal -1 -0 0
    outer loop
      vertex 102.5 153.75 80
      vertex 102.5 108.75 11
      vertex 102.5 108.75 80
    endloop
  endfacet
  facet normal 0 -1 0
    outer loop
      vertex 57.5 153.75 11
      vertex 102.5 153.75 80
      vertex 57.5 153.75 80
    endloop
  endfacet
  facet normal 0 -1 -0
    outer loop
      vertex 102.5 153.75 80
      vertex 57.5 153.75 11
      vertex 102.5 153.75 11
    endloop
  endfacet
  facet normal -0 0 1
    outer loop
      vertex 57.5 153.75 11
      vertex 102.5 108.75 11
      vertex 102.5 153.75 11
    endloop
  endfacet
  facet normal 0 0 1
    outer loop
      vertex 102.5 108.75 11
      vertex 57.5 153.75 11
      vertex 57.5 108.75 11
    endloop
  endfacet
  facet normal 0 1 -0
    outer loop
      vertex 102.5 108.75 11
      vertex 57.5 108.75 80
      vertex 102.5 108.75 80
    endloop
  endfacet
  facet normal 0 1 0
    outer loop
      vertex 57.5 108.75 80
      vertex 102.5 108.75 11
      vertex 57.5 108.75 11
    endloop
  endfacet
  facet normal 1 -0 0
    outer loop
      vertex 108.75 6.25 80
      vertex 108.75 51.25 11
      vertex 108.75 51.25 80
    endloop
  endfacet
  facet normal 1 0 0
    outer loop
      vertex 108.75 51.25 11
      vertex 108.75 6.25 80
      vertex 108.75 6.25 11
    endloop
  endfacet
  facet normal -1 0 0
    outer loop
      vertex 153.75 6.25 11
      vertex 153.75 51.25 80
      vertex 153.75 51.25 11
    endloop
  endfacet
  facet normal -1 -0 0
    outer loop
      vertex 153.75 51.25 80
      vertex 153.75 6.25 11
      vertex 153.75 6.25 80
    endloop
  endfacet
  facet normal -0 0 1
    outer loop
      vertex 108.75 51.25 11
      vertex 153.75 6.25 11
      vertex 153.75 51.25 11
    endloop
  endfacet
  facet normal 0 0 1
    outer loop
      vertex 153.75 6.25 11
      vertex 108.75 51.25 11
      vertex 108.75 6.25 11
    endloop
  endfacet
  facet normal 0 1 -0
    outer loop
      vertex 153.75 6.25 11
      vertex 108.75 6.25 80
      vertex 153.75 6.25 80
    endloop
  endfacet
  facet normal 0 1 0
    outer loop
      vertex 108.75 6.25 80
      vertex 153.75 6.25 11
      vertex 108.75 6.25 11
    endloop
  endfacet
  facet normal 0 -1 0
    outer loop
      vertex 108.75 51.25 11
      vertex 153.75 51.25 80
      vertex 108.75 51.25 80
    endloop
  endfacet
  facet normal 0 -1 -0
    outer loop
      vertex 153.75 51.25 80
      vertex 108.75 51.25 11
      vertex 153.75 51.25 11
    endloop
  endfacet
  facet normal 1 -0 0
    outer loop
      vertex 108.75 57.5 80
      vertex 108.75 102.5 11
      vertex 108.75 102.5 80
    endloop
  endfacet
  facet normal 1 0 0
    outer loop
      vertex 108.75 102.5 11
      vertex 108.75 57.5 80
      vertex 108.75 57.5 11
    endloop
  endfacet
  facet normal -1 0 0
    outer loop
      vertex 153.75 57.5 11
      vertex 153.75 102.5 80
      vertex 153.75 102.5 11
    endloop
  endfacet
  facet normal -1 -0 0
    outer loop
      vertex 153.75 102.5 80
      vertex 153.75 57.5 11
      vertex 153.75 57.5 80
    endloop
  endfacet
  facet normal -0 0 1
    outer loop
      vertex 108.75 102.5 11
      vertex 153.75 57.5 11
      vertex 153.75 102.5 11
    endloop
  endfacet
  facet normal 0 0 1
    outer loop
      vertex 153.75 57.5 11
      vertex 108.75 102.5 11
      vertex 108.75 57.5 11
    endloop
  endfacet
  facet normal 0 1 -0
    outer loop
      vertex 153.75 57.5 11
      vertex 108.75 57.5 80
      vertex 153.75 57.5 80
    endloop
  endfacet
  facet normal 0 1 0
    outer loop
      vertex 108.75 57.5 80
      vertex 153.75 57.5 11
      vertex 108.75 57.5 11
    endloop
  endfacet
  facet normal 0 -1 0
    outer loop
      vertex 108.75 102.5 11
      vertex 153.75 102.5 80
      vertex 108.75 102.5 80
    endloop
  endfacet
  facet normal 0 -1 -0
    outer loop
      vertex 153.75 102.5 80
      vertex 108.75 102.5 11
      vertex 153.75 102.5 11
    endloop
  endfacet
  facet normal 1 -0 0
    outer loop
      vertex 108.75 108.75 80
      vertex 108.75 153.75 11
      vertex 108.75 153.75 80
    endloop
  endfacet
  facet normal 1 0 0
    outer loop
      vertex 108.75 153.75 11
      vertex 108.75 108.75 80
      vertex 108.75 108.75 11
    endloop
  endfacet
  facet normal -1 0 0
    outer loop
      vertex 153.75 108.75 11
      vertex 153.75 153.75 80
      vertex 153.75 153.75 11
    endloop
  endfacet
  facet normal -1 -0 0
    outer loop
      vertex 153.75 153.75 80
      vertex 153.75 108.75 11
      vertex 153.75 108.75 80
    endloop
  endfacet
  facet normal -0 0 1
    outer loop
      vertex 108.75 153.75 11
      vertex 153.75 108.75 11
      vertex 153.75 153.75 11
    endloop
  endfacet
  facet normal 0 0 1
    outer loop
      vertex 153.75 108.75 11
      vertex 108.75 153.75 11
      vertex 108.75 108.75 11
    endloop
  endfacet
  facet normal 0 1 -0
    outer loop
      vertex 153.75 108.75 11
      vertex 108.75 108.75 80
      vertex 153.75 108.75 80
    endloop
  endfacet
  facet normal 0 1 0
    outer loop
      vertex 108.75 108.75 80
      vertex 153.75 108.75 11
      vertex 108.75 108.75 11
    endloop
  endfacet
  facet normal 0 -1 0
    outer loop
      vertex 108.75 153.75 11
      vertex 153.75 153.75 80
      vertex 108.75 153.75 80
    endloop
  endfacet
  facet normal 0 -1 -0
    outer loop
      vertex 153.75 153.75 80
      vertex 108.75 153.75 11
      vertex 153.75 153.75 11
    endloop
  endfacet
  facet normal -1 0 0
    outer loop
      vertex 0 0 0
      vertex 0 160 80
      vertex 0 160 0
    endloop
  endfacet
  facet normal -1 -0 0
    outer loop
      vertex 0 160 80
      vertex 0 0 0
      vertex 0 0 80
    endloop
  endfacet
  facet normal -0 0 1
    outer loop
      vertex 6.25 57.5 80
      vertex 51.25 51.25 80
      vertex 51.25 57.5 80
    endloop
  endfacet
  facet normal 0 0 1
    outer loop
      vertex 51.25 51.25 80
      vertex 6.25 57.5 80
      vertex 6.25 51.25 80
    endloop
  endfacet
  facet normal -0 0 1
    outer loop
      vertex 6.25 108.75 80
      vertex 51.25 102.5 80
      vertex 51.25 108.75 80
    endloop
  endfacet
  facet normal 0 0 1
    outer loop
      vertex 51.25 102.5 80
      vertex 6.25 108.75 80
      vertex 6.25 102.5 80
    endloop
  endfacet
  facet normal -0 0 1
    outer loop
      vertex 57.5 57.5 80
      vertex 102.5 51.25 80
      vertex 102.5 57.5 80
    endloop
  endfacet
  facet normal 0 0 1
    outer loop
      vertex 102.5 51.25 80
      vertex 57.5 57.5 80
      vertex 57.5 51.25 80
    endloop
  endfacet
  facet normal -0 0 1
    outer loop
      vertex 57.5 108.75 80
      vertex 102.5 102.5 80
      vertex 102.5 108.75 80
    endloop
  endfacet
  facet normal 0 0 1
    outer loop
      vertex 102.5 102.5 80
      vertex 57.5 108.75 80
      vertex 57.5 102.5 80
    endloop
  endfacet
  facet normal -0 0 1
    outer loop
      vertex 108.75 57.5 80
      vertex 153.75 51.25 80
      vertex 153.75 57.5 80
    endloop
  endfacet
  facet normal 0 0 1
    outer loop
      vertex 153.75 51.25 80
      vertex 108.75 57.5 80
      vertex 108.75 51.25 80
    endloop
  endfacet
  facet normal -0 0 1
    outer loop
      vertex 108.75 108.75 80
      vertex 153.75 102.5 80
      vertex 153.75 108.75 80
    endloop
  endfacet
  facet normal 0 0 1
    outer loop
      vertex 153.75 102.5 80
      vertex 108.75 108.75 80
      vertex 108.75 102.5 80
    endloop
  endfacet
  facet normal 0 0 1
    outer loop
      vertex 153.75 108.75 80
      vertex 160 160 80
      vertex 153.75 153.75 80
    endloop
  endfacet
  facet normal 0 0 1
    outer loop
      vertex 160 160 80
      vertex 108.75 153.75 80
      vertex 153.75 153.75 80
    endloop
  endfacet
  facet normal 0 0 1
    outer loop
      vertex 102.5 108.75 80
      vertex 108.75 108.75 80
      vertex 108.75 153.75 80
    endloop
  endfacet
  facet normal 0 0 1
    outer loop
      vertex 108.75 108.75 80
      vertex 102.5 108.75 80
      vertex 108.75 102.5 80
    endloop
  endfacet
  facet normal 0 0 1
    outer loop
      vertex 108.75 102.5 80
      vertex 102.5 102.5 80
      vertex 108.75 57.5 80
    endloop
  endfacet
  facet normal 0 0 1
    outer loop
      vertex 102.5 57.5 80
      vertex 108.75 57.5 80
      vertex 102.5 102.5 80
    endloop
  endfacet
  facet normal 0 0 1
    outer loop
      vertex 102.5 108.75 80
      vertex 108.75 153.75 80
      vertex 102.5 153.75 80
    endloop
  endfacet
  facet normal 0 0 1
    outer loop
      vertex 160 160 80
      vertex 102.5 153.75 80
      vertex 108.75 153.75 80
    endloop
  endfacet
  facet normal 0 0 1
    outer loop
      vertex 160 160 80
      vertex 57.5 153.75 80
      vertex 102.5 153.75 80
    endloop
  endfacet
  facet normal 0 0 1
    outer loop
      vertex 51.25 108.75 80
      vertex 57.5 108.75 80
      vertex 57.5 153.75 80
    endloop
  endfacet
  facet normal 0 0 1
    outer loop
      vertex 57.5 108.75 80
      vertex 51.25 108.75 80
      vertex 57.5 102.5 80
    endloop
  endfacet
  facet normal 0 0 1
    outer loop
      vertex 57.5 102.5 80
      vertex 51.25 102.5 80
      vertex 57.5 57.5 80
    endloop
  endfacet
  facet normal 0 0 1
    outer loop
      vertex 51.25 57.5 80
      vertex 57.5 57.5 80
      vertex 51.25 102.5 80
    endloop
  endfacet
  facet normal 0 0 1
    outer loop
      vertex 51.25 108.75 80
      vertex 57.5 153.75 80
      vertex 51.25 153.75 80
    endloop
  endfacet
  facet normal -0 0 1
    outer loop
      vertex 0 160 80
      vertex 57.5 153.75 80
      vertex 160 160 80
    endloop
  endfacet
  facet normal 0 0 1
    outer loop
      vertex 57.5 153.75 80
      vertex 0 160 80
      vertex 51.25 153.75 80
    endloop
  endfacet
  facet normal 0 0 1
    outer loop
      vertex 0 160 80
      vertex 6.25 108.75 80
      vertex 6.25 153.75 80
    endloop
  endfacet
  facet normal 0 0 1
    outer loop
      vertex 6.25 108.75 80
      vertex 0 160 80
      vertex 6.25 102.5 80
    endloop
  endfacet
  facet normal 0 0 1
    outer loop
      vertex 6.25 102.5 80
      vertex 0 160 80
      vertex 6.25 57.5 80
    endloop
  endfacet
  facet normal 0 0 1
    outer loop
      vertex 0 0 80
      vertex 6.25 57.5 80
      vertex 0 160 80
    endloop
  endfacet
  facet normal 0 0 1
    outer loop
      vertex 6.25 57.5 80
      vertex 0 0 80
      vertex 6.25 51.25 80
    endloop
  endfacet
  facet normal 0 0 1
    outer loop
      vertex 51.25 153.75 80
      vertex 0 160 80
      vertex 6.25 153.75 80
    endloop
  endfacet
  facet normal 0 0 1
    outer loop
      vertex 153.75 102.5 80
      vertex 160 160 80
      vertex 153.75 108.75 80
    endloop
  endfacet
  facet normal 0 0 1
    outer loop
      vertex 160 160 80
      vertex 153.75 102.5 80
      vertex 160 0 80
    endloop
  endfacet
  facet normal -0 0 1
    outer loop
      vertex 153.75 57.5 80
      vertex 160 0 80
      vertex 153.75 102.5 80
    endloop
  endfacet
  facet normal -0 0 1
    outer loop
      vertex 153.75 51.25 80
      vertex 160 0 80
      vertex 153.75 57.5 80
    endloop
  endfacet
  facet normal -0 0 1
    outer loop
      vertex 153.75 6.25 80
      vertex 160 0 80
      vertex 153.75 51.25 80
    endloop
  endfacet
  facet normal -0 0 1
    outer loop
      vertex 108.75 6.25 80
      vertex 160 0 80
      vertex 153.75 6.25 80
    endloop
  endfacet
  facet normal 0 0 1
    outer loop
      vertex 108.75 102.5 80
      vertex 102.5 108.75 80
      vertex 102.5 102.5 80
    endloop
  endfacet
  facet normal 0 0 1
    outer loop
      vertex 108.75 57.5 80
      vertex 102.5 57.5 80
      vertex 108.75 51.25 80
    endloop
  endfacet
  facet normal 0 0 1
    outer loop
      vertex 102.5 51.25 80
      vertex 108.75 51.25 80
      vertex 102.5 57.5 80
    endloop
  endfacet
  facet normal 0 0 1
    outer loop
      vertex 108.75 51.25 80
      vertex 102.5 51.25 80
      vertex 108.75 6.25 80
    endloop
  endfacet
  facet normal 0 0 1
    outer loop
      vertex 102.5 6.25 80
      vertex 108.75 6.25 80
      vertex 102.5 51.25 80
    endloop
  endfacet
  facet normal -0 0 1
    outer loop
      vertex 102.5 6.25 80
      vertex 160 0 80
      vertex 108.75 6.25 80
    endloop
  endfacet
  facet normal -0 0 1
    outer loop
      vertex 57.5 6.25 80
      vertex 160 0 80
      vertex 102.5 6.25 80
    endloop
  endfacet
  facet normal 0 0 1
    outer loop
      vertex 57.5 102.5 80
      vertex 51.25 108.75 80
      vertex 51.25 102.5 80
    endloop
  endfacet
  facet normal 0 0 1
    outer loop
      vertex 57.5 57.5 80
      vertex 51.25 57.5 80
      vertex 57.5 51.25 80
    endloop
  endfacet
  facet normal 0 0 1
    outer loop
      vertex 51.25 51.25 80
      vertex 57.5 51.25 80
      vertex 51.25 57.5 80
    endloop
  endfacet
  facet normal 0 0 1
    outer loop
      vertex 57.5 51.25 80
      vertex 51.25 51.25 80
      vertex 57.5 6.25 80
    endloop
  endfacet
  facet normal 0 0 1
    outer loop
      vertex 51.25 6.25 80
      vertex 57.5 6.25 80
      vertex 51.25 51.25 80
    endloop
  endfacet
  facet normal 0 0 1
    outer loop
      vertex 0 0 80
      vertex 57.5 6.25 80
      vertex 51.25 6.25 80
    endloop
  endfacet
  facet normal 0 0 1
    outer loop
      vertex 0 0 80
      vertex 51.25 6.25 80
      vertex 6.25 6.25 80
    endloop
  endfacet
  facet normal 0 0 1
    outer loop
      vertex 57.5 6.25 80
      vertex 0 0 80
      vertex 160 0 80
    endloop
  endfacet
  facet normal 0 0 1
    outer loop
      vertex 6.25 51.25 80
      vertex 0 0 80
      vertex 6.25 6.25 80
    endloop
  endfacet
  facet normal 1 -0 0
    outer loop
      vertex 160 0 80
      vertex 160 160 0
      vertex 160 160 80
    endloop
  endfacet
  facet normal 1 0 0
    outer loop
      vertex 160 160 0
      vertex 160 0 80
      vertex 160 0 0
    endloop
  endfacet
  facet normal 0 1 -0
    outer loop
      vertex 160 160 0
      vertex 0 160 80
      vertex 160 160 80
    endloop
  endfacet
  facet normal 0 1 0
    outer loop
      vertex 0 160 80
      vertex 160 160 0
      vertex 0 160 0
    endloop
  endfacet
  facet normal 0 0 -1
    outer loop
      vertex 0 0 0
      vertex 160 160 0
      vertex 160 0 0
    endloop
  endfacet
  facet normal -0 0 -1
    outer loop
      vertex 160 160 0
      vertex 0 0 0
      vertex 0 160 0
    endloop
  endfacet
  facet normal 0 -1 0
    outer loop
      vertex 0 0 0
      vertex 160 0 80
      vertex 0 0 80
    endloop
  endfacet
  facet normal 0 -1 -0
    outer loop
      vertex 160 0 80
      vertex 0 0 0
      vertex 160 0 0
    endloop
  endfacet
endsolid OpenSCAD_Model
